<?xml version="1.0" encoding="utf-8"?><svg viewBox="0 0 800 800" xmlns="http://www.w3.org/2000/svg" xmlns:xlink="http://www.w3.org/1999/xlink"><style>:root>svg{display:none}:root>svg:target{display:block}</style><svg viewBox="0 0 12 12" id="icon-arrow" xmlns="http://www.w3.org/2000/svg"><path d="M0 6h10m0 0L5 1m5 5-5 5"/></svg><svg viewBox="0 0 1920 1920" id="icon-arrowUp" xmlns="http://www.w3.org/2000/svg"><path d="m.153 1393.854 92.168 92.299 867.767-867.636 867.636 867.636 92.429-92.299L960.088 433.92z" fill-rule="evenodd"/></svg><svg viewBox="0 0 22 18" id="icon-filter" xmlns="http://www.w3.org/2000/svg"><path d="M20 15v3h-2v-3h-2v-3h6v3h-2ZM4 15v3H2v-3H0v-3h6v3H4Zm6-12V0h2v3h2v3H8V3h2Zm0 5h2v10h-2V8Zm-8 2V0h2v10H2Zm16 0V0h2v10h-2Z"/></svg><svg viewBox="0 0 106 60" id="icon-logo" xmlns="http://www.w3.org/2000/svg"><path d="M105.664 41.733c-.295-1.321-.897-2.519-1.594-3.67a8.796 8.796 0 0 0-2.71-2.807c-1.164-.78-2.332-1.213-3.708-1.429-2.654-.415-5.523.24-7.65 1.912-.856.671-1.707 1.758-1.947 2.844-.043.191-.15.791.221.693.44-.117.864-.745 1.208-1.034a7.04 7.04 0 0 1 3.25-1.536c1.287-.237 2.651-.354 3.95-.17 1.195.17 2.295.847 3.143 1.69.894.887 1.745 2.158 2.074 3.39.663 2.484.522 5.276-.243 7.732-.203.65-.464 1.36-.872 1.909-.142.188-.295.455-.523.545-.264.107-.445-.154-.593-.327-.482-.557-.958-1.12-1.486-1.64-.357-.351-1.112-.792-.928-1.38.215-.686.464-1.32.544-2.044a9.86 9.86 0 0 0 .04-1.951c-.117-1.315-.6-2.444-1.592-3.34-.921-.831-2.113-1.213-3.302-.751-1.207.47-1.886 1.468-1.502 2.78.313 1.074 1.459 1.526 2.491 1.314.63-.13 1.063-.496 1.315-1.084.123-.283.209-.578.224-.89.012-.178-.129-.64-.03-.818 0 .04.14-.003.08-.025.417.083.755.78.945 1.1a3.97 3.97 0 0 1 .52 1.615c.098 1.115.076 2.272-.464 3.276-.283.526-.731.215-1.106-.05-.446-.31-.885-.618-1.367-.87-1.125-.586-2.234-1.127-3.435-1.54a28.077 28.077 0 0 0-1.914-.597c-.663-.179-.55-.665-.62-1.247-.166-1.354-.664-2.653-1.349-3.823a36.835 36.835 0 0 0-2.316-3.537c-.873-1.164-1.807-2.281-2.648-3.466-.172-.243-1.06-1.348-.78-1.65.202-.222.89.132 1.115.19 1.238.318 2.513.447 3.784.509 2.842.138 5.791-.29 8.488-1.2 4.771-1.61 9.763-5.068 10.157-10.538.19-2.61-.338-5.295-1.865-7.453-1.524-2.154-3.837-3.543-6.325-4.294-1.328-.403-2.7-.646-4.077-.819-1.413-.178-2.915-.298-4.338-.237-1.398.065-2.832.111-4.193.444-.676.163-1.343.24-2.01.45-.635.196-1.305.338-1.925.584-1.334.533-2.627 1.08-3.887 1.776a42.586 42.586 0 0 0-3.523 2.164 38.21 38.21 0 0 0-3.343 2.58c-.184.157-.906 1.013-1.136.572-.172-.326-.099-.797-.11-1.154a11.282 11.282 0 0 1 2.546-7.585c.83-1.013 1.782-2.044 2.894-2.749.614-.385 1.207-.8 1.852-1.133.578-.298 1.192-.523 1.791-.778C79.358 1.146 82.163.84 84.82.966c.655.031 1.367.22 1.973.465.497.204.933.764 1.499.478.986-.5 2.04-.28 3.069-.585.172-.05.457-.21.285-.431-.138-.179-.454-.216-.657-.262a22.825 22.825 0 0 0-1.831-.339C87.683.077 86.212.025 84.722.003c-2.79-.043-5.551.363-8.15 1.416-2.556 1.034-4.946 2.41-6.746 4.556-.867 1.037-1.518 2.198-2.013 3.45-.485 1.229-.657 2.577-.798 3.876-.074.68-.096 1.345-.05 2.029.031.474.228 1.114-.049 1.545-.374.585-.943 1.078-1.41 1.589-.405.443-.71.972-1.075 1.453-.866 1.135-1.653 2.358-2.282 3.641-.636 1.296-1.097 2.62-1.555 3.987-.925 2.752-1.103 5.642-.986 8.523.058 1.407.307 2.802.654 4.162.335 1.312.747 2.645 1.306 3.879-2.209-.13-4.455-.259-5.161.228.046-.031 4.288 5.59 2.313 9.348-2.187-1.973-8.577-7.59-5.637-9.764 2.273-1.678 5.121-4.867 3.88-7.976-1.272-3.195-5.711-2.395-7.65-.406-3.787 3.857 1.15 7.97-2.175 10.82a9.108 9.108 0 0 0-1.069 1.087c.151-.487.252-.988.292-1.515a14.05 14.05 0 0 0-.288-4.21c-.295-1.321-.898-2.519-1.592-3.67-.7-1.154-1.591-2.06-2.712-2.808-1.165-.778-2.332-1.212-3.708-1.428-2.655-.415-5.524.24-7.647 1.912-.857.67-1.71 1.757-1.95 2.844-.043.19-.151.791.224.693.442-.117.863-.745 1.207-1.035a7.04 7.04 0 0 1 3.25-1.536c1.287-.237 2.655-.354 3.954-.169 1.192.17 2.292.846 3.143 1.69.894.886 1.745 2.158 2.073 3.39.664 2.483.52 5.275-.242 7.732-.203.65-.464 1.36-.876 1.908-.141.188-.295.456-.522.545-.264.108-.442-.154-.593-.326-.485-.557-.958-1.12-1.484-1.64-.356-.352-1.112-.792-.93-1.38.214-.686.463-1.32.543-2.044a9.638 9.638 0 0 0 .04-1.952c-.117-1.314-.599-2.444-1.594-3.34-.919-.83-2.114-1.212-3.3-.75-1.21.47-1.886 1.468-1.505 2.78.316 1.074 1.46 1.526 2.494 1.314.63-.13 1.063-.496 1.315-1.084.123-.283.206-.579.225-.89.009-.178-.13-.64-.034-.818 0 .04.144-.003.08-.025.417.083.758.779.946 1.099.286.483.47 1.056.522 1.616.095 1.114.074 2.272-.467 3.275-.282.527-.731.216-1.103-.049-.445-.31-.884-.619-1.37-.871-1.124-.585-2.233-1.127-3.434-1.54a28.14 28.14 0 0 0-1.917-.596c-.664-.176-.547-.665-.618-1.247-.169-1.355-.663-2.654-1.348-3.826-.716-1.226-1.466-2.401-2.32-3.537-.87-1.164-1.803-2.281-2.648-3.467-.169-.243-1.057-1.348-.777-1.65.203-.221.89.133 1.115.191 1.238.317 2.51.447 3.782.508 2.841.139 5.79-.29 8.488-1.2 4.774-1.61 9.763-5.067 10.159-10.537.187-2.61-.341-5.295-1.868-7.453-1.52-2.155-3.837-3.543-6.325-4.294-1.33-.403-2.7-.647-4.077-.819-1.413-.178-2.915-.299-4.337-.237-1.398.065-2.833.11-4.194.443-.676.163-1.342.24-2.009.45-.639.197-1.306.338-1.926.585-1.333.532-2.627 1.08-3.886 1.776a42.544 42.544 0 0 0-3.524 2.164 38.202 38.202 0 0 0-3.342 2.58c-.185.157-.903 1.012-1.137.572-.172-.326-.095-.797-.11-1.154a11.298 11.298 0 0 1 2.546-7.585c.83-1.013 1.782-2.044 2.897-2.75.611-.384 1.207-.8 1.853-1.132.58-.299 1.192-.523 1.794-.779 2.476-1.025 5.28-1.33 7.94-1.203.652.03 1.365.218 1.97.464.498.204.934.764 1.5.478.988-.5 2.04-.28 3.068-.585.172-.05.458-.21.286-.431-.138-.179-.455-.216-.654-.262a23.338 23.338 0 0 0-1.831-.339C28.1.077 26.629.025 25.143.003c-2.793-.043-5.555.363-8.15 1.416-2.56 1.034-4.946 2.41-6.747 4.556-.87 1.037-1.517 2.198-2.015 3.45-.485 1.229-.657 2.577-.796 3.876-.07.68-.095 1.345-.049 2.029.031.474.23 1.114-.049 1.545-.372.585-.946 1.078-1.41 1.589-.405.443-.707.972-1.072 1.453a22.147 22.147 0 0 0-2.286 3.641c-.636 1.296-1.093 2.62-1.551 3.987-.925 2.752-1.103 5.642-.986 8.523.058 1.407.307 2.802.657 4.162.341 1.336.762 2.7 1.34 3.953.59 1.284 1.155 2.549 1.87 3.77.259.438.842 1.032.394 1.518-.424.462-.882.868-1.266 1.37-.759.991-1.478 2.13-1.591 3.402-.11 1.24.116 2.512.97 3.457 1.893 2.09 4.885 2.42 7.552 2.268 1.33-.074 2.688-.23 3.966-.618.657-.2 1.333-.404 1.966-.665.546-.228 1.158-.665 1.76-.428 2.513 1 5.395 1.36 8.08 1.376 2.718.015 5.581-.41 8.162-1.28 1.352-.453 2.66-1.026 3.868-1.795a21.009 21.009 0 0 0 1.984-1.463l2.043-.046c-.194-.618.224-1.862.602-2.25.75-.764 1.505-1.576 2.154-2.45-1.552 5.55 3.668 11.62 10.282 8.437 1.18-.575 2.648-1.542 3.566-2.475.833.687 3.748 2.084 5.518 2.808l.003.003c.236.11.476.212.725.298 1.539.551 3.28.64 4.903.548 1.33-.074 2.688-.23 3.966-.618.657-.2 1.33-.404 1.966-.665.547-.228 1.158-.665 1.763-.428 2.51 1 5.395 1.36 8.077 1.376 2.719.015 5.585-.41 8.165-1.28 1.352-.453 2.66-1.026 3.865-1.795a21.446 21.446 0 0 0 1.987-1.463l2.04-.046c-.19-.618.222-1.862.606-2.25 1.864-1.902 3.769-4.076 3.981-6.865a14.143 14.143 0 0 0-.292-4.201Zm-79.388 9.262c.304-.366.553-.791.784-1.207.494-.886.906-1.862 1.14-2.853l.002-.019v-.003l.007-.03a.867.867 0 0 1 .009-.044v-.003l.009-.03v-.004c.11-.477.246-.778.814-.563.492.185 1.01.296 1.52.422 1.04.261 2.127.692 3.076 1.182.531.27 1.035.59 1.533.926.328.222.706.505.365.902-.682.78-1.548 1.275-2.466 1.73-1.005.496-2.139.653-3.248.687-.59.015-1.182-.043-1.772-.065-.556-.021-1.115-.04-1.66-.172-.57-.148-.417-.49-.113-.856Zm-1.652-3.355a7.642 7.642 0 0 1-.673 2.866c-.234.514-.489.584-1.005.338-.464-.218-.94-.403-1.398-.637-2.021-1.031-3.907-2.238-5.502-3.87-.682-.698.437-.71.925-.8 1.124-.212 2.252-.19 3.389-.234l.04-.003c.015 0 .033 0 .052-.003l.064-.003c.013-.003.025-.003.037-.003h.01c.015 0 .03-.003.04-.003l.03-.003c.58-.025 1.155-.071 1.739-.062.571.006 1.22-.03 1.778.102.689.175.495 1.788.474 2.315Zm-2.56-7.912c.74 1.149 1.552 2.325 1.96 3.642.237.773-.743.499-1.216.496a30.23 30.23 0 0 0-2.11.064c-1.358.087-2.726.197-4.071.413-.356.058-.71.123-1.06.197-.258.055-.52.21-.786.11-.378-.138-.66-.898-.83-1.227-.611-1.195-1.032-2.479-1.36-3.772-.185-.72-.25-1.49-.357-2.228-.101-.705-.09-1.422-.03-2.133.199-2.55.53-5.292 2.073-7.416l.018-.025a.37.37 0 0 1 .037-.049v-.003c.449-.585.965-.043 1.444.274.538.357 1.075.745 1.653 1.034.245.123.513.262.537.57.025.302-.043.612-.043.914a8.12 8.12 0 0 0 .262 1.96c.334 1.288 1.035 2.454 1.67 3.609.68 1.234 1.45 2.395 2.21 3.57Zm-11.084-3.66c.139 2.817 1.106 5.403 2.206 7.967.228.53.523.973-.19 1.179-.378.11-1.103.566-1.45.246-.378-.345-.59-.985-.787-1.44-.248-.58-.479-1.167-.611-1.783-.571-2.669-.786-5.491-.28-8.185.458-2.435 1.592-5.011 3.266-6.861.006-.007.018-.016.03-.031l.038-.04c.147-.151.571-.545.657-.203.065.264-.215.606-.347.806-.56.847-.998 1.678-1.383 2.62-.728 1.779-1.244 3.786-1.149 5.725Zm-2.11-19.03c.415-.452.925-.846 1.376-1.262.993-.91 2.086-1.754 3.186-2.533.584-.413 1.192-.785 1.785-1.185.562-.379 1.164-.647 1.757-.97 2.488-1.364 5.204-2.34 8.006-2.792 1.376-.222 2.722-.357 4.122-.339 1.272.016 2.492.185 3.742.382 2.63.413 5.33 1.595 7.253 3.466a9.91 9.91 0 0 1 2.246 3.254c.51 1.222.67 2.632.648 3.95a10.221 10.221 0 0 1-2.633 6.707c-1.818 2.016-4.506 3.328-7.108 3.977-2.765.69-5.616.88-8.448.594-.698-.07-1.361-.2-2.05-.332-.473-.09-1.084-.25-1.505-.486-.503-.284-.212-1.112-.113-1.549.138-.597.38-1.105.703-1.619.344-.551.823-1.04 1.125-1.613.264-.505-.099-.73-.59-.56-1.155.403-2.261 1.274-3.014 2.225-.409.517-.611 1.115-.925 1.681-.288.53-.845.114-1.235-.08-.543-.27-1.136-.557-1.637-.911-.452-.323-.065-.699.24-.96a13.619 13.619 0 0 1 6.829-3.196c.295-.046.657-.148.93.034.222.148.363.388.55.573.412.412.891.782 1.392 1.08 1.115.659 2.492.893 3.766.914 1.444.025 2.808-.323 4.13-.895 1.225-.53 2.43-1.223 3.31-2.245.167-.19.892-1.139.244-1.19-.378-.032-.808.258-1.162.365-1.198.358-2.556.25-3.701-.23-1.048-.44-2.28-1.16-2.695-2.29-.43-1.192.375-1.737 1.15-2.439 0 0 .002-.003.005-.003v-.003h.003c.007-.006.01-.012.016-.018.375-.339-.065-.373-.363-.271a4.037 4.037 0 0 0-.81.372c-.544.333-.962.795-1.454 1.189-1.078.858-2.482 1.372-3.741 1.89a72.1 72.1 0 0 0-4.05 1.813c-1.259.603-2.534 1.188-3.729 1.908-.617.373-1.232.739-1.819 1.164-.393.283-.97.914-1.446.48-.947-.859-1.785-1.995-2.483-3.06-.371-.566-.786-1.176-1.035-1.81-.233-.59.298-.933.7-1.262a12.965 12.965 0 0 1 3.03-1.868c.562-.247 1.124-.468 1.726-.598.19-.043.836-.27.97-.052.1.163-.098.477-.144.631a2.05 2.05 0 0 0-.064.914c.083.499.34 1.007.75 1.309.918.677 2.359.544 2.973-.471.615-1.013.433-2.254-.519-2.986-1.002-.773-2.504-.536-3.653-.296-.335.071-.703.071-1.017.21-.285.123-.559.267-.847.378-.64.25-1.22.607-1.813.942-.587.336-1.115.699-1.646 1.114-.298.231-.845.893-1.131.333-.215-.422-.44-1.087-.083-1.475Zm-7.167 17.9c0 .01-.003.02-.003.025 0 .01-.003.019-.003.028v.003c0 .006 0 .012-.003.019v.015c0 .006-.003.012-.003.015v.01c0 .006-.003.009-.003.015v.003c-.028.391-.05.8-.212 1.16-.252-.344-.157-.985-.17-1.385-.015-.541-.098-1.059-.08-1.61.032-1.062.207-2.096.333-3.152.328-2.693 1.465-5.31 2.786-7.646a20.538 20.538 0 0 1 2.48-3.47c.153-.175.76-1.12 1.007-.652.098.19.12.412.19.613.09.243.224.498.108.757-.15.323-.458.606-.67.886-.209.274-.418.551-.624.831-.402.545-.798 1.087-1.149 1.669-.73 1.222-1.317 2.496-1.895 3.792-.562 1.265-.968 2.592-1.275 3.94-.307 1.367-.707 2.743-.814 4.135Zm2.623 11.587a11.777 11.777 0 0 1-.826-1.828c-.894-2.61-1.106-5.467-.977-8.207.068-1.41.224-2.86.544-4.236.307-1.314.691-2.656 1.198-3.903.55-1.351.995-2.718 1.754-3.977.685-1.127 1.312-2.284 2.212-3.257.022-.024.043-.043.065-.065.015-.015.015-.018.015-.018.4-.416.617-.15.842.29.282.556.663 1.052 1.029 1.557.378.52.798 1.007 1.226 1.487.368.415.875.797 1.17 1.268.264.419-.424.924-.688 1.16-.492.447-.876.97-1.293 1.478-.805.985-1.546 2.016-2.148 3.14-2.402 4.519-3.85 9.632-2.457 14.702.092.339.178.683.307 1.013.083.21.218.498.101.72-.169.326-.697.643-1.01.336-.45-.438-.769-1.118-1.064-1.66Zm10.805 11.227c-.525.32-1.13.49-1.708.693-1.349.474-2.799.624-4.221.664-2.105.062-5.03-.372-6.32-2.259-1.581-2.315.102-5.169 2.053-6.63.553-.416 1.023.458 1.348.812.452.49.931.948 1.426 1.395.974.877 1.944 1.803 3.032 2.545l.03.019c.022.015.099.064.111.074.003.003.003.003.006.003l.016.009c.273.197.531.45.89.446.05-.348-.497-.692-.727-.865-.338-.255-.692-.49-1.005-.772a23.865 23.865 0 0 1-2.046-2.09c-.568-.647-1.253-1.395-1.631-2.174-.15-.31.067-.582.362-.686.283-.102.476.227.59.425.87 1.499 2.01 2.909 3.213 4.149a21.08 21.08 0 0 0 4.166 3.361c.341.207 1.008.52.415.88Zm5.16-3.334c-.527-.09-1.102-.498-1.553-.773a12.53 12.53 0 0 1-2.885-2.327 36.419 36.419 0 0 1-2.396-2.961c-.32-.437-.753-.908-.968-1.407-.184-.43.329-.498.639-.579l.006-.003c.003-.003.003-.003.003 0l.003-.003.019-.003.03-.009c.025-.01.043-.012.059-.015.003-.004.009-.004.015-.007.003 0 .006-.003.012-.003.006-.003.01-.003.01-.003.457-.148 1.029-.375 1.425 0 .39.373.75.773 1.146 1.14a26.66 26.66 0 0 0 2.878 2.342 27.353 27.353 0 0 0 3.201 1.918c.27.135 1.063.4.815.819-.243.409-.716.788-1.063 1.105-.36.323-.867.858-1.395.77Zm13.334 1.767c-.713.785-2.126.65-3.076.628-1.324-.03-2.663-.092-3.969-.323a23.998 23.998 0 0 1-3.809-1.028c-.141-.05-.531-.145-.544-.339-.015-.215.378-.434.513-.545.449-.372.897-.745 1.33-1.126l.004-.003.009-.01.003-.003s.021-.015.04-.037l.055-.049.003-.003c.476-.406.793-.477 1.444-.351.633.123 1.281.163 1.926.197 1.229.065 2.467.065 3.69-.139.132-.024 1.13-.344.918.077-.2.404-.537 1.38.077 1.066.759-.376 2.356.926 1.386 1.988Zm5.305-3.13c-.387.141-.857.178-1.266.178-1.075 0-2.098-.551-3.155-.726-.009 0-.018-.004-.024-.004h-.003c-.013-.003-.022-.003-.031-.003h-.003l-.003-.003h-.006c-.003 0-.01-.003-.016-.003-.209-.03-.433-.046-.611-.175.147-.277.449-.404.704-.557.276-.167.546-.345.81-.533.418-.299.76-.702 1.174-.991.427-.296.845.28 1.112.55.424.435.811.906 1.235 1.337.298.292.633.726.083.93Zm10.992-15.438.006-.028v-.003l.006-.03c.003-.02.01-.04.012-.06v-.002l.007-.025c.003-.003.003-.006.003-.01 1.188-4.934 9.102 1.762 1.213 6.416-.915-1.9-1.683-4.125-1.247-6.258Zm6.218 18.931c-.004.003-.007.003-.01.006l-.046.031-.015.01c-.03.021-.04.024-.04.024-6.881 4.273-12.42-5.673-6.583-10.528 1.88 3.663 4.626 6.963 7.667 9.703-.325.25-.648.502-.973.754Zm29.722-5.553c.304-.366.55-.791.783-1.207.495-.886.906-1.862 1.137-2.853 0-.003 0-.006.003-.01.003-.002.003-.012.003-.024.006-.012.006-.028.012-.04 0-.01.003-.015.003-.025.003-.015.006-.03.013-.043l.002-.006c.108-.47.25-.77.812-.554.491.185 1.01.296 1.517.422 1.038.261 2.123.692 3.075 1.182.532.27 1.035.59 1.53.926.329.222.707.505.363.902-.682.78-1.546 1.275-2.464 1.73-1.005.496-2.138.653-3.25.687-.59.015-1.18-.043-1.773-.065-.553-.022-1.115-.04-1.656-.172-.568-.142-.414-.484-.11-.85Zm-1.653-3.355a7.702 7.702 0 0 1-.673 2.866c-.236.514-.491.584-1.008.338-.463-.218-.937-.403-1.397-.637-2.019-1.031-3.908-2.238-5.5-3.87-.681-.698.437-.71.922-.8 1.128-.212 2.252-.19 3.392-.234l.04-.003c.015 0 .034 0 .052-.003.022 0 .043-.003.065-.003.012-.003.021-.003.036-.003h.01c.015 0 .03-.003.04-.003l.03-.003c.58-.025 1.155-.071 1.74-.062.57.006 1.219-.03 1.778.105.685.172.491 1.785.473 2.312Zm-2.56-7.912c.741 1.149 1.552 2.325 1.958 3.642.24.773-.744.499-1.217.496a30.14 30.14 0 0 0-2.107.064c-1.358.087-2.725.197-4.07.413-.357.058-.71.123-1.06.197-.259.055-.517.21-.79.11-.375-.138-.657-.898-.826-1.227-.612-1.195-1.033-2.479-1.361-3.772-.185-.72-.252-1.49-.357-2.228-.101-.705-.089-1.422-.034-2.133.2-2.53.526-5.249 2.04-7.37.013-.015.022-.03.037-.05l.003-.002.04-.056c.455-.612.977-.064 1.46.259.54.357 1.078.745 1.655 1.034.246.123.513.262.538.57.021.302-.046.612-.043.914.006.656.095 1.327.258 1.96.338 1.288 1.038 2.454 1.671 3.609.676 1.234 1.444 2.395 2.206 3.57Zm-11.083-3.66c.138 2.817 1.106 5.403 2.206 7.967.227.53.522.973-.19 1.179-.379.11-1.104.566-1.45.246-.376-.345-.59-.985-.787-1.44-.246-.58-.476-1.167-.612-1.783-.568-2.669-.783-5.491-.28-8.185.459-2.435 1.592-5.008 3.263-6.855a.802.802 0 0 1 .01-.01l.009-.009.03-.034v-.003l.004-.003.009-.009a.042.042 0 0 0 .006-.01s.003 0 .003-.002l.003-.003c.15-.151.575-.545.657-.204.065.265-.215.607-.344.807a14.513 14.513 0 0 0-1.382 2.62c-.734 1.785-1.253 3.792-1.155 5.731Zm-2.114-19.03c.415-.452.922-.846 1.377-1.262.992-.91 2.086-1.754 3.185-2.533.584-.413 1.192-.785 1.782-1.185.562-.379 1.167-.647 1.757-.97 2.489-1.364 5.204-2.34 8.006-2.792 1.376-.222 2.722-.357 4.123-.339 1.272.016 2.491.185 3.742.382 2.626.413 5.33 1.595 7.256 3.466a9.907 9.907 0 0 1 2.245 3.254c.513 1.222.67 2.632.649 3.95a10.221 10.221 0 0 1-2.633 6.707c-1.816 2.016-4.507 3.328-7.106 3.977-2.765.69-5.619.88-8.448.594-.697-.07-1.36-.2-2.052-.332-.47-.09-1.081-.25-1.505-.486-.504-.284-.212-1.112-.114-1.549.135-.597.38-1.105.704-1.619.343-.551.823-1.04 1.124-1.613.264-.505-.095-.73-.587-.56-1.155.403-2.26 1.274-3.014 2.225-.408.517-.61 1.115-.924 1.681-.29.53-.845.114-1.235-.08-.547-.27-1.14-.557-1.638-.911-.451-.323-.064-.699.24-.96a13.619 13.619 0 0 1 6.83-3.196c.294-.046.657-.148.927.034.221.148.362.388.55.573.408.412.89.782 1.391 1.08 1.112.659 2.489.893 3.767.914 1.444.025 2.808-.323 4.126-.895 1.225-.53 2.433-1.223 3.314-2.245.166-.19.888-1.139.243-1.19-.375-.032-.805.258-1.158.365-1.198.358-2.556.25-3.702-.23-1.048-.44-2.283-1.16-2.694-2.29-.433-1.192.375-1.737 1.149-2.439 0 0 .003 0 .006-.003v-.003l.024-.024c.01-.01.013-.01.013-.01.338-.323-.09-.354-.381-.255a4.143 4.143 0 0 0-.814.372c-.541.333-.959.795-1.45 1.189-1.079.858-2.483 1.372-3.742 1.89a72.129 72.129 0 0 0-4.049 1.813c-1.26.603-2.531 1.188-3.73 1.908-.62.373-1.234.739-1.818 1.164-.396.283-.97.914-1.45.48-.943-.859-1.785-1.995-2.48-3.06-.371-.566-.786-1.176-1.038-1.81-.23-.59.301-.933.704-1.262a12.903 12.903 0 0 1 3.029-1.868c.559-.247 1.124-.468 1.723-.598.19-.043.836-.27.971-.052.098.163-.098.477-.144.631a2.007 2.007 0 0 0-.065.914c.083.499.338 1.007.75 1.309.918.677 2.36.544 2.974-.471.614-1.013.433-2.254-.52-2.986-.998-.773-2.5-.536-3.652-.296-.332.071-.7.071-1.017.21-.286.123-.556.267-.851.378-.64.25-1.22.607-1.813.942a13.56 13.56 0 0 0-1.646 1.114c-.298.231-.845.893-1.13.333-.213-.422-.434-1.087-.08-1.475Zm-.635 4.082.052-.055.018-.019c.003-.003.006-.003.006-.003 0-.003.003-.003.003-.003.403-.418.62-.15.842.29.283.557.664 1.052 1.03 1.557.377.52.798 1.007 1.225 1.487.369.416.872.797 1.17 1.268.265.419-.423.924-.69 1.16-.492.447-.876.97-1.294 1.478-.805.985-1.549 2.017-2.148 3.14-2.1 3.956-3.474 8.364-2.85 12.797-.63.037-1.42.015-2.261-.025-.76-2.469-.934-5.135-.815-7.699.068-1.41.222-2.86.544-4.236.307-1.314.691-2.656 1.198-3.903.547-1.351.996-2.718 1.755-3.977.685-1.13 1.314-2.287 2.215-3.257Zm-1.835 26.73c-.168.325-.697.642-1.01.335-.446-.438-.768-1.118-1.06-1.66a8.934 8.934 0 0 1-.264-.51c.712-.04 1.37-.16 1.79-.432l.01.047c.04.163.08.323.123.486.095.339.178.683.307 1.013.086.21.221.502.104.72Zm-4.697-12.911-.003.027c0 .01-.003.019-.003.031V35c0 .006 0 .016-.003.022v.012c0 .003 0 .01-.003.012.003.004 0 .007 0 .01v.009c0 .003 0 .01-.003.012v.006c-.025.391-.052.795-.212 1.155-.249-.345-.16-.985-.169-1.386-.015-.541-.095-1.058-.08-1.61.03-1.061.203-2.096.329-3.152.329-2.693 1.465-5.31 2.786-7.646a20.696 20.696 0 0 1 2.476-3.47c.157-.175.762-1.12 1.01-.652.1.19.12.413.191.613.086.243.225.498.105.757-.148.323-.455.606-.67.886-.212.274-.418.551-.624.832-.402.544-.798 1.086-1.148 1.668-.732 1.222-1.318 2.497-1.896 3.793-.565 1.265-.968 2.591-1.275 3.94-.298 1.36-.7 2.736-.808 4.128Zm-.365 16.786c.654-1.887.752-4.168-.467-5.852.38.028 1.155.117 2.006.148.316.658.648 1.308 1.02 1.942.258.437.844 1.031.396 1.518-.424.461-.882.868-1.266 1.37-.759.99-1.477 2.13-1.591 3.4-.04.46-.037.921.03 1.368.044.298.114.59.219.874-1.822-1.305-1.8-.588-.347-4.768Zm13.793 6.027c-.525.32-1.13.49-1.705.693-1.352.474-2.798.624-4.22.664a12.462 12.462 0 0 1-2.434-.163c-1.536-.264-3.053-.874-3.886-2.096a3.878 3.878 0 0 1-.255-.431c-1.121-2.229.476-4.827 2.307-6.2.556-.415 1.026.459 1.352.813.451.49.928.948 1.425 1.395.974.877 1.945 1.803 3.03 2.545l.024.016.01.006c.002.003.005.003.008.006l.077.052c.01.006.016.013.025.019l.015.009c.273.197.531.45.891.446.05-.348-.498-.692-.725-.865-.338-.255-.691-.49-1.008-.772a24.318 24.318 0 0 1-2.046-2.09c-.568-.647-1.256-1.395-1.63-2.174-.151-.31.064-.582.362-.686.282-.102.476.228.59.425.869 1.499 2.008 2.909 3.21 4.15a21.096 21.096 0 0 0 4.169 3.36c.34.204 1.007.518.414.878Zm5.161-3.334c-.528-.09-1.103-.498-1.557-.773a12.579 12.579 0 0 1-2.882-2.327 35.771 35.771 0 0 1-2.396-2.961c-.32-.437-.753-.908-.968-1.407-.187-.43.329-.498.636-.579l.006-.003c.003-.003.003-.003.003 0l.003-.003.019-.003.03-.009c.025-.01.044-.012.056-.015.003-.004.01-.004.015-.007.003 0 .006-.003.01-.003l.009-.003c.457-.148 1.029-.375 1.425 0 .39.373.75.773 1.146 1.14a26.93 26.93 0 0 0 2.875 2.342 27.884 27.884 0 0 0 3.201 1.918c.268.135 1.06.4.812.819-.24.409-.716.788-1.06 1.105-.348.323-.851.858-1.383.77Zm13.336 1.767c-.713.785-2.126.65-3.075.628-1.324-.03-2.664-.092-3.97-.323a24.092 24.092 0 0 1-3.809-1.028c-.14-.05-.528-.145-.546-.339-.016-.215.377-.434.516-.545.445-.372.89-.742 1.33-1.126 0 0 .003 0 .003-.003l.021-.019c.013-.01.022-.019.034-.03l.05-.044c.485-.415.798-.49 1.453-.357.632.123 1.284.163 1.926.197 1.228.065 2.47.065 3.69-.139.131-.024 1.13-.344.918.078-.203.403-.538 1.379.077 1.065.752-.379 2.353.923 1.382 1.985Zm5.305-3.13c-.387.141-.857.178-1.265.178-1.066 0-2.08-.542-3.13-.723-.01-.003-.016-.003-.025-.003-.01-.004-.019-.004-.028-.004-.012-.003-.024-.003-.03-.003-.004-.003-.004-.003-.007-.003h-.006c-.006-.003-.01-.003-.015-.003-.003-.003-.006-.003-.006-.003-.206-.028-.43-.043-.603-.172.145-.277.449-.404.704-.557.276-.167.55-.345.814-.533.418-.299.759-.702 1.174-.991.427-.296.844.28 1.112.55.424.435.81.906 1.235 1.337.288.292.623.726.076.93Z"/></svg><svg viewBox="0 0 20 20" id="icon-pinterest" xmlns="http://www.w3.org/2000/svg"><path d="M11.268.827a9.262 9.262 0 0 0-4.97 17.663 7.182 7.182 0 0 1 .15-2.123c.172-.777 1.2-5.059 1.2-5.059a3.461 3.461 0 0 1-.299-1.46c0-1.375.793-2.401 1.78-2.401a1.235 1.235 0 0 1 1.243 1.396c0 .834-.535 2.095-.815 3.278a1.43 1.43 0 0 0 1.459 1.78c1.757 0 2.935-2.25 2.935-4.908 0-2.037-1.35-3.563-3.836-3.563A4.394 4.394 0 0 0 5.55 9.87a2.74 2.74 0 0 0 .6 1.823.445.445 0 0 1 .15.513c-.043.17-.15.577-.193.726a.328.328 0 0 1-.472.235c-1.281-.513-1.885-1.923-1.885-3.533 0-2.636 2.207-5.792 6.624-5.792 3.515 0 5.852 2.572 5.852 5.322 0 3.62-2.016 6.34-4.995 6.34a2.65 2.65 0 0 1-2.272-1.153s-.535 2.144-.64 2.55a7.431 7.431 0 0 1-.944 1.973 8.95 8.95 0 0 0 2.635.385 9.25 9.25 0 0 0 9.256-9.262A9.26 9.26 0 0 0 11.27.827h-.002Z"/></svg><svg viewBox="0 0 24 24" id="icon-reset" xmlns="http://www.w3.org/2000/svg"><g clip-path="url(#fa)"><path d="M6 4h15a1 1 0 0 1 1 1v7h-2V6H6v3L1 5l5-4v3Zm12 16H3a1 1 0 0 1-1-1v-7h2v6h14v-3l5 4-5 4v-3Z"/></g><defs><clipPath id="fa"><path d="M0 0h24v24H0z"/></clipPath></defs></svg><svg viewBox="0 0 18 18" id="icon-tel" xmlns="http://www.w3.org/2000/svg"><path d="M6.366 7.682a10.556 10.556 0 0 0 3.952 3.952l.884-1.238a1 1 0 0 1 1.294-.296 11.422 11.422 0 0 0 4.583 1.364 1 1 0 0 1 .921.997v4.462a1 1 0 0 1-.898.995A15.51 15.51 0 0 1 15.5 18C6.94 18 0 11.06 0 2.5 0 1.962.027 1.428.082.898A1 1 0 0 1 1.077 0h4.462a1 1 0 0 1 .997.921A11.422 11.422 0 0 0 7.9 5.504a1 1 0 0 1-.296 1.294l-1.238.884Zm-2.522-.657 1.9-1.357A13.41 13.41 0 0 1 4.647 2H2.01c-.006.166-.009.333-.009.5C2 9.956 8.044 16 15.5 16c.167 0 .334-.003.5-.01v-2.637a13.413 13.413 0 0 1-3.668-1.097l-1.357 1.9a12.446 12.446 0 0 1-1.588-.75l-.058-.033a12.556 12.556 0 0 1-4.702-4.702l-.033-.058a12.442 12.442 0 0 1-.75-1.588Z"/></svg><svg viewBox="0 0 21 19" id="icon-telegram" xmlns="http://www.w3.org/2000/svg"><path fill-rule="evenodd" clip-rule="evenodd" d="M2.233 8.21c5.25-2.509 8.75-4.163 10.501-4.962C17.735.966 18.774.57 19.451.557c.15-.003.482.037.698.23.182.162.232.38.256.534.024.154.054.504.03.778-.27 3.123-1.443 10.703-2.04 14.201-.252 1.48-.749 1.977-1.23 2.026-1.046.105-1.84-.759-2.853-1.487-1.585-1.14-2.48-1.849-4.018-2.96-1.778-1.286-.626-1.992.387-3.147.266-.302 4.873-4.899 4.962-5.316.011-.052.022-.247-.084-.35-.105-.102-.26-.067-.372-.039-.16.04-2.691 1.875-7.596 5.507-.718.541-1.37.805-1.953.791-.643-.015-1.88-.398-2.799-.726C1.712 10.197.815 9.984.893 9.3c.041-.356.488-.72 1.34-1.091Z"/></svg><svg viewBox="0 0 20 12" id="icon-vk" xmlns="http://www.w3.org/2000/svg"><path d="M18.586 1.671c.126-.395 0-.671-.591-.671h-1.97c-.506 0-.731.25-.858.526 0 0-.999 2.29-2.42 3.763-.464.435-.661.566-.914.566-.127 0-.31-.131-.31-.526V1.67c0-.474-.14-.671-.563-.671H7.865c-.31 0-.506.224-.506.421 0 .447.703.553.788 1.79v2.71c0 .592-.113.697-.366.697-.661 0-2.293-2.29-3.25-4.92C4.334 1.21 4.151 1 3.645 1h-1.97C1.113 1 1 1.25 1 1.526c0 .487.661 2.908 3.11 6.106C5.74 9.816 8.033 11 10.115 11c1.252 0 1.407-.263 1.407-.71V8.632c0-.527.113-.632.52-.632.296 0 .789.132 1.956 1.184C15.336 10.434 15.561 11 16.306 11h1.97c.563 0 .844-.263.675-.776-.183-.513-.816-1.263-1.66-2.158-.464-.513-1.153-1.053-1.35-1.33-.296-.354-.211-.512 0-.815 0-.013 2.405-3.171 2.645-4.25Z"/></svg></svg>